<svg xmlns="http://www.w3.org/2000/svg" version="1.1" width="1em" height="1em" viewBox="0 0 876 122" style="shape-rendering:geometricPrecision; text-rendering:geometricPrecision; image-rendering:optimizeQuality; fill-rule:evenodd; clip-rule:evenodd" xmlns:xlink="http://www.w3.org/1999/xlink">
<g><path style="opacity:0.999" fill="#128bed" d="M 728.5,14.5 C 768.833,15.8277 809.167,15.8277 849.5,14.5C 851.753,15.2531 853.587,16.5864 855,18.5C 855.667,46.1667 855.667,73.8333 855,101.5C 854.167,102.333 853.333,103.167 852.5,104C 810.5,104.667 768.5,104.667 726.5,104C 724.438,102.468 723.104,100.468 722.5,98C 723.83,72.5297 723.83,47.0297 722.5,21.5C 723.833,18.5067 725.833,16.1734 728.5,14.5 Z"/></g>
<g><path style="opacity:0.82" fill="currentcolor" d="M 482.5,34.5 C 490.139,33.6325 497.305,34.9659 504,38.5C 503.993,41.1884 503.16,43.6884 501.5,46C 497.516,45.5337 493.516,44.7004 489.5,43.5C 481.165,44.1253 479.498,47.6253 484.5,54C 491.874,56.4338 498.374,60.2671 504,65.5C 509.01,81.0269 503.176,89.0269 486.5,89.5C 480.587,89.1269 474.92,87.7935 469.5,85.5C 469.167,85 468.833,84.5 468.5,84C 469.479,81.5667 470.145,79.0667 470.5,76.5C 475.519,78.2504 480.686,79.5837 486,80.5C 495.245,78.883 496.745,74.7164 490.5,68C 484.44,66.1364 478.774,63.4698 473.5,60C 466.655,48.034 469.655,39.534 482.5,34.5 Z"/></g>
<g><path style="opacity:0.794" fill="currentcolor" d="M 30.5,35.5 C 34.1064,35.2108 37.6064,35.5442 41,36.5C 46.1036,45.7077 50.937,55.041 55.5,64.5C 60.1028,54.7945 65.1028,45.2945 70.5,36C 73.8168,35.5017 77.1501,35.335 80.5,35.5C 81.7609,52.725 83.0942,69.8917 84.5,87C 80.5138,87.4988 76.5138,87.6655 72.5,87.5C 72.2495,77.4906 71.7495,67.4906 71,57.5C 66.6568,65.1811 63.1568,73.1811 60.5,81.5C 57.1016,81.8204 53.7683,81.487 50.5,80.5C 47.2906,72.7069 43.7906,65.0402 40,57.5C 39.0845,67.4816 38.5845,77.4816 38.5,87.5C 34.5,87.5 30.5,87.5 26.5,87.5C 27.5775,70.1588 28.9109,52.8255 30.5,35.5 Z"/></g>
<g><path style="opacity:0.818" fill="currentcolor" d="M 431.5,36.5 C 433.5,36.5 435.5,36.5 437.5,36.5C 437.5,40.5 437.5,44.5 437.5,48.5C 442.167,48.5 446.833,48.5 451.5,48.5C 451.5,51.1667 451.5,53.8333 451.5,56.5C 446.833,56.5 442.167,56.5 437.5,56.5C 437.109,63.9209 437.609,71.2542 439,78.5C 440.231,79.1078 441.564,79.4411 443,79.5C 445.881,78.9722 448.715,78.3055 451.5,77.5C 451.851,80.2377 452.518,82.9044 453.5,85.5C 452.088,86.8064 450.421,87.6397 448.5,88C 442.245,89.1268 436.245,88.4601 430.5,86C 429.789,84.7453 428.956,83.5786 428,82.5C 426.566,67.5583 426.066,52.5583 426.5,37.5C 428.415,37.7845 430.081,37.4511 431.5,36.5 Z"/></g>
<g><path style="opacity:0.818" fill="currentcolor" d="M 581.5,36.5 C 583.5,36.5 585.5,36.5 587.5,36.5C 587.5,40.5 587.5,44.5 587.5,48.5C 592.167,48.5 596.833,48.5 601.5,48.5C 601.5,51.1667 601.5,53.8333 601.5,56.5C 596.833,56.5 592.167,56.5 587.5,56.5C 587.071,63.9472 587.571,71.2806 589,78.5C 590.231,79.1078 591.564,79.4411 593,79.5C 595.881,78.9722 598.715,78.3055 601.5,77.5C 602.395,80.7383 602.395,83.9049 601.5,87C 595.903,88.4561 590.237,88.7894 584.5,88C 580.693,86.8596 578.193,84.3596 577,80.5C 576.5,66.1705 576.333,51.8372 576.5,37.5C 578.415,37.7845 580.081,37.4511 581.5,36.5 Z"/></g>
<g><path style="opacity:1" fill="currentcolor" d="M 741.5,35.5 C 751.29,34.4537 760.623,35.9537 769.5,40C 771.378,41.5429 772.878,43.3762 774,45.5C 777.15,58.3806 772.317,66.2139 759.5,69C 755.514,69.4988 751.514,69.6655 747.5,69.5C 747.5,75.5 747.5,81.5 747.5,87.5C 744.5,87.5 741.5,87.5 738.5,87.5C 738.5,70.5 738.5,53.5 738.5,36.5C 739.791,36.7373 740.791,36.404 741.5,35.5 Z"/></g>
<g><path style="opacity:1" fill="#128bed" d="M 747.5,44.5 C 751.846,44.3343 756.179,44.501 760.5,45C 765.224,47.4353 766.724,51.2686 765,56.5C 760.039,60.9258 754.206,62.5925 747.5,61.5C 747.5,55.8333 747.5,50.1667 747.5,44.5 Z"/></g>
<g><path style="opacity:0.827" fill="currentcolor" d="M 93.5,47.5 C 99.5092,47.3338 105.509,47.5005 111.5,48C 116.551,49.7167 119.385,53.2167 120,58.5C 120.5,68.1609 120.666,77.8276 120.5,87.5C 112.519,88.4433 104.519,88.61 96.5,88C 90.044,86.3734 86.7107,82.2067 86.5,75.5C 87.0767,71.1791 89.0767,67.6791 92.5,65C 98.0249,63.2084 103.692,62.0418 109.5,61.5C 108.872,59.7419 107.872,58.2419 106.5,57C 101.481,56.5017 96.4808,56.6684 91.5,57.5C 91.7076,55.0799 91.3742,52.7466 90.5,50.5C 91.3398,49.265 92.3398,48.265 93.5,47.5 Z M 100.5,71.5 C 103.5,71.5 106.5,71.5 109.5,71.5C 109.5,74.5 109.5,77.5 109.5,80.5C 106.059,80.6989 102.726,80.1989 99.5,79C 98.0825,76.2565 98.4159,73.7565 100.5,71.5 Z"/></g>
<g><path style="opacity:0.782" fill="currentcolor" d="M 132.5,47.5 C 138.509,47.3338 144.509,47.5005 150.5,48C 156.864,49.7017 160.364,53.8683 161,60.5C 161.5,69.4938 161.666,78.4938 161.5,87.5C 157.833,87.5 154.167,87.5 150.5,87.5C 150.816,78.1155 150.316,68.7822 149,59.5C 148.5,58.3333 147.667,57.5 146.5,57C 143.854,56.5026 141.187,56.3359 138.5,56.5C 138.5,66.8333 138.5,77.1667 138.5,87.5C 134.5,87.5 130.5,87.5 126.5,87.5C 126.168,74.8158 126.501,62.1492 127.5,49.5C 129.336,48.9724 131.003,48.3058 132.5,47.5 Z"/></g>
<g><path style="opacity:0.827" fill="currentcolor" d="M 171.5,47.5 C 177.509,47.3338 183.509,47.5005 189.5,48C 194.551,49.7167 197.385,53.2167 198,58.5C 198.5,68.1609 198.666,77.8276 198.5,87.5C 190.519,88.4433 182.519,88.61 174.5,88C 168.044,86.3734 164.711,82.2067 164.5,75.5C 165.077,71.1791 167.077,67.6791 170.5,65C 176.025,63.2084 181.692,62.0418 187.5,61.5C 186.872,59.7419 185.872,58.2419 184.5,57C 179.481,56.5017 174.481,56.6684 169.5,57.5C 169.708,55.0799 169.374,52.7466 168.5,50.5C 169.34,49.265 170.34,48.265 171.5,47.5 Z M 178.5,71.5 C 181.5,71.5 184.5,71.5 187.5,71.5C 187.5,74.5 187.5,77.5 187.5,80.5C 184.059,80.6989 180.726,80.1989 177.5,79C 176.083,76.2565 176.416,73.7565 178.5,71.5 Z"/></g>
<g><path style="opacity:0.824" fill="currentcolor" d="M 215.5,47.5 C 222.956,47.0903 230.289,47.757 237.5,49.5C 238.666,63.1545 238.833,76.8212 238,90.5C 236.833,95.6667 233.667,98.8333 228.5,100C 220.464,101.897 212.464,101.73 204.5,99.5C 204.62,96.5198 205.287,93.6865 206.5,91C 211.728,92.1338 217.061,92.4671 222.5,92C 225.264,91.7367 226.931,90.2367 227.5,87.5C 207.334,87.8377 199.501,78.171 204,58.5C 206.412,53.2523 210.246,49.5857 215.5,47.5 Z M 219.5,56.5 C 222.167,56.5 224.833,56.5 227.5,56.5C 227.83,63.1998 227.497,69.8665 226.5,76.5C 221.323,78.7492 217.489,77.4159 215,72.5C 213.314,66.0715 214.814,60.7382 219.5,56.5 Z"/></g>
<g><path style="opacity:0.835" fill="currentcolor" d="M 256.5,47.5 C 274.229,45.565 282.229,53.565 280.5,71.5C 272.167,71.5 263.833,71.5 255.5,71.5C 256.24,77.6335 259.74,80.3001 266,79.5C 269.333,79.5769 272.5,78.9102 275.5,77.5C 277.662,80.4677 277.995,83.6343 276.5,87C 268.833,89 261.167,89 253.5,87C 244.958,81.05 241.791,72.8834 244,62.5C 245.52,55.1582 249.687,50.1582 256.5,47.5 Z M 259.5,56.5 C 265.188,55.531 268.188,57.8643 268.5,63.5C 264.116,63.8256 259.783,63.4922 255.5,62.5C 256.467,60.2099 257.8,58.2099 259.5,56.5 Z"/></g>
<g><path style="opacity:0.806" fill="currentcolor" d="M 291.5,47.5 C 298.804,47.0169 305.97,47.6835 313,49.5C 319.796,47.1411 326.629,46.9744 333.5,49C 337.745,52.055 339.911,56.2217 340,61.5C 340.5,70.1603 340.666,78.8269 340.5,87.5C 336.5,87.5 332.5,87.5 328.5,87.5C 328.666,78.1607 328.5,68.8274 328,59.5C 327.242,57.0904 325.575,56.0904 323,56.5C 320.615,56.2556 318.782,57.089 317.5,59C 318.461,68.4592 318.795,77.9592 318.5,87.5C 314.833,87.5 311.167,87.5 307.5,87.5C 307.853,78.1088 307.353,68.7754 306,59.5C 305.626,58.5838 305.126,57.7504 304.5,57C 301.854,56.5026 299.187,56.3359 296.5,56.5C 296.5,66.8333 296.5,77.1667 296.5,87.5C 292.833,87.5 289.167,87.5 285.5,87.5C 285.333,74.8289 285.5,62.1623 286,49.5C 287.948,48.8906 289.782,48.224 291.5,47.5 Z"/></g>
<g><path style="opacity:0.837" fill="currentcolor" d="M 356.5,47.5 C 374.671,45.1716 382.671,53.005 380.5,71C 372.507,71.4997 364.507,71.6664 356.5,71.5C 356.544,75.0897 358.211,77.5897 361.5,79C 366.963,79.7536 372.296,79.2536 377.5,77.5C 377.59,79.6963 377.923,81.863 378.5,84C 377.849,86.504 376.182,87.8373 373.5,88C 352.376,91.5401 342.876,82.7068 345,61.5C 346.873,55.1358 350.706,50.4691 356.5,47.5 Z M 360.5,56.5 C 366.144,55.4809 369.144,57.8143 369.5,63.5C 365.167,63.5 360.833,63.5 356.5,63.5C 356.961,60.6967 358.295,58.3634 360.5,56.5 Z"/></g>
<g><path style="opacity:0.815" fill="currentcolor" d="M 391.5,47.5 C 397.509,47.3338 403.509,47.5005 409.5,48C 415.447,49.6132 418.947,53.4465 420,59.5C 420.5,68.8274 420.666,78.1607 420.5,87.5C 416.833,87.5 413.167,87.5 409.5,87.5C 409.917,78.0854 409.417,68.7521 408,59.5C 407.626,58.5838 407.126,57.7504 406.5,57C 403.518,56.502 400.518,56.3354 397.5,56.5C 397.5,66.8333 397.5,77.1667 397.5,87.5C 393.833,87.5 390.167,87.5 386.5,87.5C 386.333,74.8289 386.5,62.1623 387,49.5C 388.622,48.9011 390.122,48.2344 391.5,47.5 Z"/></g>
<g><path style="opacity:0.821" fill="currentcolor" d="M 551.5,47.5 C 557.869,47.347 564.203,47.6803 570.5,48.5C 570.743,51.8826 570.076,55.0492 568.5,58C 565.379,57.0009 562.045,56.1676 558.5,55.5C 553.962,56.3923 552.962,58.559 555.5,62C 561.486,63.4082 566.652,66.2415 571,70.5C 574.87,79.1876 572.37,85.0209 563.5,88C 558.167,88.6667 552.833,88.6667 547.5,88C 545.22,87.7674 543.22,86.934 541.5,85.5C 542.482,82.9044 543.149,80.2377 543.5,77.5C 547.785,78.6242 552.118,79.6242 556.5,80.5C 561.52,79.9111 562.52,77.7445 559.5,74C 555.047,72.2737 550.714,70.2737 546.5,68C 540.031,59.0753 541.697,52.2419 551.5,47.5 Z"/></g>
<g><path style="opacity:0.837" fill="currentcolor" d="M 614.5,47.5 C 632.671,45.1716 640.671,53.005 638.5,71C 630.507,71.4997 622.507,71.6664 614.5,71.5C 614.544,75.0897 616.211,77.5897 619.5,79C 624.963,79.7536 630.296,79.2536 635.5,77.5C 635.59,79.6963 635.923,81.863 636.5,84C 635.849,86.504 634.182,87.8373 631.5,88C 610.376,91.5401 600.876,82.7068 603,61.5C 604.873,55.1358 608.706,50.4691 614.5,47.5 Z M 618.5,56.5 C 624.144,55.4809 627.144,57.8143 627.5,63.5C 623.167,63.5 618.833,63.5 614.5,63.5C 614.961,60.6967 616.295,58.3634 618.5,56.5 Z"/></g>
<g><path style="opacity:0.808" fill="currentcolor" d="M 649.5,47.5 C 656.989,46.9884 664.322,47.6551 671.5,49.5C 678.455,47.1056 685.455,46.9389 692.5,49C 695.106,50.9384 696.939,53.4384 698,56.5C 698.5,66.828 698.666,77.1613 698.5,87.5C 694.833,87.5 691.167,87.5 687.5,87.5C 687.666,78.4938 687.5,69.4938 687,60.5C 684.938,56.8437 681.771,55.677 677.5,57C 676.919,57.8926 676.585,58.8926 676.5,60C 677.432,69.1366 677.765,78.3033 677.5,87.5C 673.5,87.5 669.5,87.5 665.5,87.5C 665.666,78.1607 665.5,68.8274 665,59.5C 664.626,58.5838 664.126,57.7504 663.5,57C 660.854,56.5026 658.187,56.3359 655.5,56.5C 655.5,66.8333 655.5,77.1667 655.5,87.5C 651.833,87.5 648.167,87.5 644.5,87.5C 644.333,74.8289 644.5,62.1623 645,49.5C 646.622,48.9011 648.122,48.2344 649.5,47.5 Z"/></g>
<g><path style="opacity:1" fill="currentcolor" d="M 819.5,47.5 C 835.948,47.1147 843.782,55.1147 843,71.5C 838.289,87.2729 828.456,91.7729 813.5,85C 805.208,75.0765 804.375,64.5765 811,53.5C 813.637,51.109 816.47,49.109 819.5,47.5 Z"/></g>
<g><path style="opacity:0.787" fill="currentcolor" d="M 504.5,49.5 C 508.566,48.178 512.733,48.178 517,49.5C 518.607,57.156 521.107,64.4893 524.5,71.5C 527.282,64.3756 529.449,57.0423 531,49.5C 534.73,48.5399 538.563,48.2065 542.5,48.5C 539.234,64.4632 534.068,79.7965 527,94.5C 520.245,101.731 512.412,103.231 503.5,99C 504.554,96.6178 505.221,94.1178 505.5,91.5C 511.902,94.1815 516.569,92.5148 519.5,86.5C 513.101,74.6162 508.101,62.2829 504.5,49.5 Z"/></g>
<g><path style="opacity:1" fill="currentcolor" d="M 788.5,47.5 C 793.547,47.3375 798.547,47.6708 803.5,48.5C 803.5,51.1667 803.5,53.8333 803.5,56.5C 798.944,55.4136 794.444,55.4136 790,56.5C 789.5,66.828 789.334,77.1613 789.5,87.5C 786.833,87.5 784.167,87.5 781.5,87.5C 781.5,74.8333 781.5,62.1667 781.5,49.5C 784.228,49.8294 786.562,49.1628 788.5,47.5 Z"/></g>
<g><path style="opacity:1" fill="#128bed" d="M 821.5,55.5 C 833.004,56.2215 836.838,62.2215 833,73.5C 830.51,80.1596 826.01,81.993 819.5,79C 817.959,77.4207 816.792,75.5873 816,73.5C 815.333,69.5 815.333,65.5 816,61.5C 817.36,58.9774 819.193,56.9774 821.5,55.5 Z"/></g>
</svg>
